# Blender 3.5.1
# www.blender.org
mtllib road.mtl
o rua_Cubo
v 16.744492 -1.604423 0.849350
v 16.744492 -1.604423 1.150650
v 16.744492 2.734882 0.849350
v 16.744492 2.734882 1.150650
v -14.945755 -1.604423 0.849350
v -14.945755 -1.604423 1.150650
v -14.945755 2.734882 0.849350
v -14.945755 2.734882 1.150650
vn 1.0000 -0.0000 -0.0000
vn -0.0000 1.0000 -0.0000
vn -1.0000 -0.0000 -0.0000
vn -0.0000 -1.0000 -0.0000
vn -0.0000 -0.0000 -1.0000
vn -0.0000 -0.0000 1.0000
vt 2.338983 0.030904
vt 2.338983 0.969096
vt -1.338983 0.030904
vt -1.338983 0.969096
vt 2.338983 0.030904
vt 2.338983 0.969096
vt -1.338983 0.969096
vt -1.338983 0.030904
vt 2.338983 0.030904
vt 2.338983 0.969096
vt -1.338983 0.969096
vt -1.338983 0.969096
vt -1.338983 0.030904
vt 2.338983 0.969096
vt 2.338983 0.030904
vt 2.338983 0.969096
vt -1.338983 0.030904
vt 2.338983 0.030904
vt -1.338983 0.969096
vt -1.338983 0.030904
s 0
usemtl Materiais.001
f 3/6/1 2/3/1 1/1/1
f 7/16/2 4/8/2 3/5/2
f 5/10/3 8/20/3 7/15/3
f 1/2/4 6/13/4 5/9/4
f 1/2/5 7/17/5 3/5/5
f 6/14/6 4/8/6 8/18/6
f 3/6/1 4/7/1 2/3/1
f 7/16/2 8/19/2 4/8/2
f 5/10/3 6/12/3 8/20/3
f 1/2/4 2/4/4 6/13/4
f 1/2/5 5/11/5 7/17/5
f 6/14/6 2/4/6 4/8/6
